<?xml version="1.0" encoding="UTF-8" standalone="no"?>
<!DOCTYPE svg PUBLIC "-//W3C//DTD SVG 1.1//EN" "http://www.w3.org/Graphics/SVG/1.1/DTD/svg11.dtd">
<svg xmlns="http://www.w3.org/2000/svg" version="1.1" viewBox="0.00 0.00 281.00 254.00">
<g stroke-width="2.00" fill="none" stroke-linecap="butt">
<path stroke="#8ddffd" vector-effect="non-scaling-stroke" d="
  M 48.37 81.29
  L 48.43 80.94
  A 0.28 0.28 0.0 0 1 48.98 80.92
  Q 50.08 85.44 52.48 89.39
  C 59.29 100.53 67.10 110.60 77.24 118.91
  Q 88.30 127.97 101.22 134.94
  Q 103.14 135.97 102.82 133.82
  Q 102.77 133.44 101.34 132.65
  Q 77.14 119.26 61.59 96.38
  C 54.14 85.42 49.71 74.08 53.74 60.57"
/>
<path stroke="#ffc45e" vector-effect="non-scaling-stroke" d="
  M 198.21 76.99
  L 197.16 79.89
  A 0.69 0.69 0.0 0 1 196.42 80.34
  C 194.75 80.11 193.53 80.30 191.99 79.52
  C 186.92 76.93 181.52 73.52 176.86 71.48
  Q 143.94 57.14 110.05 71.24
  C 102.20 74.50 86.59 81.90 83.66 90.02"
/>
<path stroke="#ff911b" vector-effect="non-scaling-stroke" d="
  M 229.31 124.22
  Q 228.08 124.46 227.55 123.55
  Q 227.33 123.16 226.89 123.12
  Q 225.83 123.02 224.78 123.63"
/>
<path stroke="#ffbb59" vector-effect="non-scaling-stroke" d="
  M 174.62 111.87
  Q 176.03 114.31 173.87 115.17
  C 171.38 116.16 168.42 115.77 165.44 117.41
  Q 160.29 120.25 154.34 121.93"
/>
<path stroke="#86d9fc" vector-effect="non-scaling-stroke" d="
  M 210.16 126.05
  Q 205.25 125.53 201.74 128.90"
/>
<path stroke="#86d9fc" vector-effect="non-scaling-stroke" d="
  M 74.86 209.18
  Q 87.30 209.85 98.66 207.68
  Q 107.89 205.92 116.47 201.47
  Q 124.47 197.32 132.53 191.31
  Q 146.12 181.19 154.24 168.62"
/>
</g>
<rect fill="#21befc" x="-4.39" y="-16.16" transform="translate(142.63,22.52) rotate(-0.2)" width="8.78" height="32.32" rx="4.10"/>
<path fill="#ffab2a" d="
  M 103.70 43.18
  L 94.31 22.11
  A 2.90 2.90 0.0 0 1 96.98 18.03
  L 100.73 18.06
  A 2.90 2.90 0.0 0 1 103.43 19.95
  L 110.70 39.56
  A 2.90 2.90 0.0 0 1 109.89 42.75
  L 108.26 44.18
  A 2.90 2.90 0.0 0 1 103.70 43.18
  Z"
/>
<rect fill="#ffab2a" x="-4.45" y="-14.00" transform="translate(182.13,30.88) rotate(22.4)" width="8.90" height="28.00" rx="4.30"/>
<rect fill="#21befc" x="-4.53" y="-14.89" transform="translate(74.44,45.47) rotate(-37.3)" width="9.06" height="29.78" rx="4.40"/>
<rect fill="#21befc" x="-4.68" y="-15.01" transform="translate(210.50,45.39) rotate(38.2)" width="9.36" height="30.02" rx="4.54"/>
<path fill="#21befc" d="
  M 48.37 81.29
  L 48.43 80.94
  A 0.28 0.28 0.0 0 1 48.98 80.92
  Q 50.08 85.44 52.48 89.39
  C 59.29 100.53 67.10 110.60 77.24 118.91
  Q 88.30 127.97 101.22 134.94
  Q 103.14 135.97 102.82 133.82
  Q 102.77 133.44 101.34 132.65
  Q 77.14 119.26 61.59 96.38
  C 54.14 85.42 49.71 74.08 53.74 60.57
  Q 61.85 72.80 68.82 85.41
  C 72.07 91.29 78.32 98.47 83.91 104.46
  C 87.67 108.47 91.33 112.66 95.34 116.21
  Q 109.37 128.65 124.99 138.99
  C 132.56 144.00 141.48 147.48 149.99 151.61
  A 0.43 0.43 0.0 0 1 149.78 152.43
  C 133.50 151.25 117.92 149.99 101.14 145.70
  Q 90.16 142.88 82.31 139.12
  Q 44.93 121.19 31.04 80.50
  Q 27.29 69.53 27.92 58.17
  C 28.41 49.24 29.92 43.21 36.25 37.31
  Q 37.97 35.70 37.94 38.06
  C 37.78 48.35 36.92 58.72 38.81 69.75
  Q 39.81 75.61 42.02 82.87
  Q 45.98 95.89 47.82 99.48
  Q 51.46 106.59 55.83 113.90
  Q 56.28 114.66 56.01 113.82
  Q 51.04 97.99 48.37 81.29
  Z"
/>
<rect fill="#ffab2a" x="-12.69" y="-4.21" transform="translate(233.58,66.49) rotate(-39.9)" width="25.38" height="8.42" rx="4.07"/>
<path fill="#fedc92" d="
  M 198.21 76.99
  L 197.16 79.89
  A 0.69 0.69 0.0 0 1 196.42 80.34
  C 194.75 80.11 193.53 80.30 191.99 79.52
  C 186.92 76.93 181.52 73.52 176.86 71.48
  Q 143.94 57.14 110.05 71.24
  C 102.20 74.50 86.59 81.90 83.66 90.02
  L 79.24 84.53
  A 0.93 0.92 51.0 0 1 79.37 83.23
  C 84.13 79.34 88.75 74.83 93.52 71.70
  C 104.18 64.72 114.33 61.19 126.77 58.89
  C 151.56 54.31 178.85 60.48 198.21 76.99
  Z"
/>
<path fill="#f9fffe" d="
  M 53.74 60.57
  C 49.71 74.08 54.14 85.42 61.59 96.38
  Q 77.14 119.26 101.34 132.65
  Q 102.77 133.44 102.82 133.82
  Q 103.14 135.97 101.22 134.94
  Q 88.30 127.97 77.24 118.91
  C 67.10 110.60 59.29 100.53 52.48 89.39
  Q 50.08 85.44 48.98 80.92
  A 0.28 0.28 0.0 0 0 48.43 80.94
  L 48.37 81.29
  Q 46.59 72.76 47.20 64.13
  C 47.43 60.90 50.98 57.12 53.74 60.57
  Z"
/>
<path fill="#ffab2a" d="
  M 198.21 76.99
  C 212.81 88.11 224.54 106.61 229.31 124.22
  Q 228.08 124.46 227.55 123.55
  Q 227.33 123.16 226.89 123.12
  Q 225.83 123.02 224.78 123.63
  L 199.24 113.20
  Q 198.78 113.01 198.47 112.62
  Q 193.57 106.25 187.94 103.56
  Q 174.18 97.00 160.68 102.04
  Q 152.46 105.10 147.11 111.92
  Q 140.12 120.82 139.70 132.61
  Q 139.65 133.99 138.43 133.33
  C 129.08 128.25 119.31 123.35 111.07 116.78
  C 100.86 108.63 91.32 100.45 83.66 90.02
  C 86.59 81.90 102.20 74.50 110.05 71.24
  Q 143.94 57.14 176.86 71.48
  C 181.52 73.52 186.92 76.93 191.99 79.52
  C 193.53 80.30 194.75 80.11 196.42 80.34
  A 0.69 0.69 0.0 0 0 197.16 79.89
  L 198.21 76.99
  Z"
/>
<rect fill="#21befc" x="-8.36" y="-3.52" transform="translate(245.51,90.09) rotate(-33.0)" width="16.72" height="7.04" rx="3.32"/>
<rect fill="#21befc" x="-10.07" y="-3.93" transform="translate(257.82,109.25) rotate(-21.6)" width="20.14" height="7.86" rx="3.79"/>
<path fill="#21befc" d="
  M 13.45 107.79
  C 12.84 101.32 22.72 103.89 23.94 108.47
  Q 24.86 111.91 25.29 115.27
  A 0.48 0.47 9.9 0 1 24.60 115.75
  Q 19.17 112.99 14.49 109.78
  Q 13.58 109.16 13.45 107.79
  Z"
/>
<path fill="#13b2fa" d="
  M 73.31 144.42
  C 95.48 156.38 123.56 159.33 148.30 158.11
  A 0.50 0.49 21.5 0 1 148.67 158.96
  Q 145.83 161.69 142.28 163.77
  C 134.95 168.05 127.16 172.15 119.16 174.13
  C 89.75 181.41 59.32 166.80 44.60 140.91
  C 38.89 130.85 34.63 119.10 33.59 107.55
  Q 33.44 105.85 34.32 107.31
  Q 48.80 131.20 73.31 144.42
  Z"
/>
<path fill="#fedc92" d="
  M 174.62 111.87
  Q 176.03 114.31 173.87 115.17
  C 171.38 116.16 168.42 115.77 165.44 117.41
  Q 160.29 120.25 154.34 121.93
  Q 161.62 110.92 174.62 111.87
  Z"
/>
<path fill="#ff991f" d="
  M 174.62 111.87
  C 195.25 115.40 199.18 142.85 178.24 150.09
  C 169.67 153.05 160.47 149.59 155.17 142.46
  Q 148.52 133.54 154.34 121.93
  Q 160.29 120.25 165.44 117.41
  C 168.42 115.77 171.38 116.16 173.87 115.17
  Q 176.03 114.31 174.62 111.87
  Z
  M 178.28 126.71
  A 7.21 7.21 0.0 0 0 171.07 119.50
  A 7.21 7.21 0.0 0 0 163.86 126.71
  A 7.21 7.21 0.0 0 0 171.07 133.92
  A 7.21 7.21 0.0 0 0 178.28 126.71
  Z"
/>
<path fill="#f9fffe" d="
  M 210.16 126.05
  Q 205.25 125.53 201.74 128.90
  L 201.07 123.61
  Q 200.97 122.83 201.75 122.95
  L 211.27 124.41
  A 0.51 0.51 0.0 0 1 211.60 125.22
  Q 211.16 125.80 210.16 126.05
  Z"
/>
<path fill="#fe770c" d="
  M 229.31 124.22
  Q 236.10 152.13 225.76 178.50
  Q 214.39 207.50 188.23 224.04
  C 183.19 227.23 175.94 229.87 171.02 231.39
  Q 132.44 243.24 97.82 223.84
  Q 94.15 221.79 98.32 222.33
  Q 104.33 223.11 112.12 222.99
  Q 138.29 222.59 160.96 210.87
  Q 169.70 206.34 177.34 199.52
  C 184.94 192.73 190.97 185.49 195.68 176.87
  Q 205.04 159.77 204.65 139.51
  Q 204.63 138.26 206.00 137.45
  Q 216.37 131.31 226.69 125.08
  Q 227.19 124.78 226.78 124.36
  Q 226.12 123.68 224.78 123.63
  Q 225.83 123.02 226.89 123.12
  Q 227.33 123.16 227.55 123.55
  Q 228.08 124.46 229.31 124.22
  Z"
/>
<path fill="#13b2fa" d="
  M 210.16 126.05
  Q 206.11 128.39 201.74 128.90
  Q 205.25 125.53 210.16 126.05
  Z"
/>
<rect fill="#21befc" x="-11.54" y="-4.10" transform="translate(15.53,141.04) rotate(1.8)" width="23.08" height="8.20" rx="3.47"/>
<rect fill="#13b2fa" x="-11.64" y="-4.07" transform="translate(264.69,140.97) rotate(-0.7)" width="23.28" height="8.14" rx="3.37"/>
<path fill="#13b2fa" d="
  M 180.63 168.55
  Q 183.07 162.04 188.08 157.36
  A 1.14 1.14 0.0 0 1 189.99 158.30
  C 189.24 166.35 182.99 184.90 173.54 186.81
  A 0.59 0.59 0.0 0 1 172.90 185.97
  C 175.80 180.27 178.38 174.54 180.63 168.55
  Z"
/>
<rect fill="#21befc" x="-7.36" y="-3.35" transform="translate(20.10,166.73) rotate(-19.3)" width="14.72" height="6.70" rx="3.19"/>
<rect fill="#13b2fa" x="-7.39" y="-3.26" transform="translate(260.91,166.72) rotate(19.7)" width="14.78" height="6.52" rx="3.09"/>
<path fill="#13b2fa" d="
  M 74.86 209.18
  Q 87.30 209.85 98.66 207.68
  Q 107.89 205.92 116.47 201.47
  Q 124.47 197.32 132.53 191.31
  Q 146.12 181.19 154.24 168.62
  Q 156.06 165.38 159.48 162.45
  A 0.39 0.38 83.4 0 1 160.07 162.92
  C 155.60 171.74 150.95 180.73 144.34 187.76
  Q 134.46 198.27 121.91 205.69
  Q 118.84 207.51 106.48 210.93
  Q 90.06 215.47 74.86 209.18
  Z"
/>
<path fill="#ff8a19" d="
  M 54.31 165.99
  C 70.44 179.20 89.10 186.21 110.14 184.24
  C 113.44 183.93 117.24 183.03 120.44 182.37
  Q 125.05 181.42 121.05 183.90
  C 110.67 190.33 101.37 194.97 88.26 196.67
  Q 82.95 197.36 68.34 196.79
  Q 67.84 196.77 67.55 196.37
  Q 57.68 182.76 53.65 166.40
  A 0.41 0.41 0.0 0 1 54.31 165.99
  Z"
/>
<path fill="#13b2fa" d="
  M 171.94 167.78
  C 171.38 176.50 164.41 185.60 157.78 190.82
  Q 155.84 192.35 153.90 192.42
  A 0.96 0.96 0.0 0 1 153.09 190.90
  Q 160.01 181.37 165.08 171.46
  C 166.20 169.28 167.71 167.62 169.63 166.41
  A 1.51 1.51 0.0 0 1 171.94 167.78
  Z"
/>
<path fill="#f9fffe" d="
  M 154.24 168.62
  Q 146.12 181.19 132.53 191.31
  Q 124.47 197.32 116.47 201.47
  Q 107.89 205.92 98.66 207.68
  Q 87.30 209.85 74.86 209.18
  Q 72.17 208.52 69.14 207.01
  Q 67.45 206.17 69.31 206.49
  C 93.46 210.63 115.35 200.67 134.41 186.69
  Q 139.42 183.01 143.74 178.90
  Q 148.91 173.97 154.24 168.62
  Z"
/>
<rect fill="#ff991f" x="-12.77" y="-4.06" transform="translate(25.38,188.78) rotate(-27.3)" width="25.54" height="8.12" rx="3.73"/>
<rect fill="#fe770c" x="-12.34" y="-4.06" transform="translate(256.65,188.96) rotate(28.5)" width="24.68" height="8.12" rx="3.91"/>
<rect fill="#fe770c" x="-12.28" y="-4.24" transform="translate(242.51,213.76) rotate(42.6)" width="24.56" height="8.48" rx="4.09"/>
<rect fill="#fe770c" x="-12.22" y="-4.15" transform="translate(39.28,213.89) rotate(-42.2)" width="24.44" height="8.30" rx="4.01"/>
</svg>
