<?xml version="1.0" ?>
<!-- Uploaded to: SVG Repo, www.svgrepo.com, Generator: SVG Repo Mixer Tools -->
<svg width="800px" height="800px" viewBox="0 0 256 256" data-name="Layer 1" id="Layer_1" xmlns="http://www.w3.org/2000/svg">
<defs>
<style>.cls-1{fill:#84d0f7;}.cls-2{fill:#2d2d2d;}.cls-3{fill:#aa392d;}.cls-4{fill:#7c211a;}.cls-5{fill:#e59973;}.cls-6,.cls-7{opacity:0.2;}.cls-7{fill:#020202;}</style>
</defs>
<g data-name="Female 3" id="Female_3">
<path class="cls-1" d="M249.37,127.93a120.86,120.86,0,0,1-37.53,87.58H45.58a99.83,99.83,0,0,1-9-8.87l-.82-1c-6.94-8.27-29.46-37.61-28.3-77.75C9.12,72.33,55.86,7,128.44,7A120.93,120.93,0,0,1,249.37,127.93Z" id="Wallpaper"/>
<path class="cls-2" d="M191.6,152.38c-8.19,12.43-26.39,18-47.37,16.23a48.1,48.1,0,0,0,5.34-3.42c.54-.41,1.08-.82,1.61-1.25,9.34-7.5,17.1-19,21.72-32a79,79,0,0,0,4.47-21.46l.06-1.22a67.31,67.31,0,0,0,0-7c0-1.15-.15-2.29-.27-3.43-.16-1.42-.37-2.83-.62-4.24-.16-.87-.33-1.74-.53-2.63,3.61,1.06,6.11,1.5,7.53.65a2.13,2.13,0,0,0,.8-.75c4.88-7.34-20.32-48-56-48-34.93,0-60.88,40.54-56,48,1.19,1.81,4,1.39,8.54,0-.21.91-.4,1.81-.56,2.69-.26,1.44-.47,2.88-.63,4.35a68.19,68.19,0,0,0-.33,10.8c0,1,.11,2,.21,3A79.91,79.91,0,0,0,83.37,131a77.92,77.92,0,0,0,13.54,24.86,57.88,57.88,0,0,0,8.5,8.44c.59.47,1.19.93,1.78,1.36a45.87,45.87,0,0,0,4.89,3.09c-13.09,1.16-30.37.14-42-10.56a31.05,31.05,0,0,1-5-5.77c-2.83-4.23-7.06-15.28,2.41-53.44,5.1-20.5,8.13-32.71,19.74-42.86,15-13.14,33.65-13.4,39.48-13.47H130c5.83.07,24.43.33,39.48,13.47,11.61,10.15,14.65,22.36,19.74,42.86C195.87,125.84,199.43,140.52,191.6,152.38Z" id="Hairs"/>
<path class="cls-3" d="M221,205.7a118.6,118.6,0,0,1-9.2,9.82,120.94,120.94,0,0,1-83.4,33.35c-25.75,0-47.26-9-63-18.63a143.75,143.75,0,0,1-19.87-14.72,101.54,101.54,0,0,1-9-8.88c-.24-.26-.52-.59-.82-1a111.39,111.39,0,0,1,25.1-18.83,130.64,130.64,0,0,1,27.47-11.32q19.95,17.64,39.85,35.25,20.11-17.64,40.25-35.25c.29.09.57.15.85.24a.89.89,0,0,0,.29.09,132.61,132.61,0,0,1,26.27,10.95A112.81,112.81,0,0,1,221,205.7Z" id="Sweater"/>
<path class="cls-4" d="M168.47,175.53q-20.11,17.64-40.25,35.25-19.9-17.64-39.85-35.25l1.61-.45,1-.29.11,0c1-.26,2.18-.57,3.5-.87q16.78,14.4,33.59,28.82,17-14.43,34-28.82C165.19,174.6,167.52,175.25,168.47,175.53Z" id="Neckband"/>
<path class="cls-5" d="M162.23,173.9q-17,14.4-34,28.82-16.78-14.43-33.59-28.82c1.44-.35,2.94-.68,4.47-1s2.78-.55,4.13-.76a38,38,0,0,0,1.66-5.14c.21-1,.39-1.87.54-2.74a36.48,36.48,0,0,0,8.75,5.5l1.74.77a31.12,31.12,0,0,0,24.34,0c.89-.37,1.65-.71,2.29-1a38.77,38.77,0,0,0,8.64-5.53c.28,1.29.63,2.64,1.06,4.05s.9,2.85,1.4,4.14a.12.12,0,0,1,.08,0c1.27.22,2.44.43,3.49.65h0C159,173.14,160.62,173.51,162.23,173.9Z" id="Neck"/>
<path class="cls-6" d="M169.61,175.86c-.83.93-1.68,1.85-2.55,2.72a55.19,55.19,0,0,1-6.23,5.42,42.21,42.21,0,0,1-9.42,5.33,34,34,0,0,1-6.55,1.94,28.89,28.89,0,0,1-6,.52,31.57,31.57,0,0,1-11.52-2.39l-.65-.26a42,42,0,0,1-8.23-4.7,59.92,59.92,0,0,1-12.58-12.74c-.57-.76-1.11-1.54-1.66-2.35.11-.35.22-.7.31-1.07a34.18,34.18,0,0,0,.89-4c.59.48,1.2.93,1.79,1.37a45.41,45.41,0,0,0,4.87,3.07l.2.11c.17.08.35.19.52.28l.63.33c.24.1.48.21.74.34s.31.13.44.2.26.13.37.17l.45.2.44.17a.93.93,0,0,0,.22.09c.17.09.35.15.52.22s.46.15.67.24c0,0,0,0,0,0l.71.24.18.06.5.16.76.24a2.21,2.21,0,0,1,.35.08l.7.2a29.44,29.44,0,0,0,4.5.78,3.54,3.54,0,0,0,.48,0,1.62,1.62,0,0,0,.31,0c.21,0,.41,0,.63,0s.37,0,.54.05h1.18a31.38,31.38,0,0,0,9.66-1.59l0,0a3.19,3.19,0,0,0,.37-.13c.65-.19,1.28-.45,1.93-.69a.75.75,0,0,1,.18-.09l.82-.35.22-.09c1-.43,1.92-.89,2.85-1.41a46.06,46.06,0,0,0,5.36-3.42c.52-.41,1-.8,1.59-1.22.3,1.35.67,2.79,1.13,4.31.41,1.37.87,2.66,1.33,3.86l1.09.19,1.08.2,1.07.19c.26.07.52.11.81.18a3.46,3.46,0,0,1,.52.11c1.35.28,2.7.56,4,.89,2.11.5,4.18,1,6.24,1.63Z" id="NeckShadow"/>
<path class="cls-5" d="M186,120.05c-.15,5.15-3.44,10.36-7.12,12.28a7.15,7.15,0,0,1-1.56.6l-.12,0a5.15,5.15,0,0,1-2,.06,4.92,4.92,0,0,1-2-.88,2.83,2.83,0,0,1-.28-.2,6.78,6.78,0,0,1-1.11-1.1c-2.66-3.2-3.74-9.2-2-14a14.43,14.43,0,0,1,3.21-5,8.81,8.81,0,0,1,4.39-2.58,5.94,5.94,0,0,1,2.34,0C184.15,110.13,186.17,115.74,186,120.05Z" id="RightEar"/>
<path class="cls-6" d="M186,120.05c-.17,5.15-3.46,10.36-7.14,12.29a8.27,8.27,0,0,1-1.54.59l-.14,0a5.1,5.1,0,0,1-2,.07,5.24,5.24,0,0,1-2-.87l-.29-.22a7.11,7.11,0,0,1-1.11-1.09c-2.65-3.2-3.74-9.21-2-14a14.6,14.6,0,0,1,3.2-5,9.91,9.91,0,0,1,3.12-2.18,7.26,7.26,0,0,1,1.28-.39,5.81,5.81,0,0,1,2.35,0,2.21,2.21,0,0,1,.35.08C184.26,110.42,186.17,115.87,186,120.05Z" id="RightEarShadow"/>
<path class="cls-5" d="M85,130.84a7.36,7.36,0,0,1-1.39,1.3,4.88,4.88,0,0,1-4.06.82l-.12,0a7.15,7.15,0,0,1-1.56-.6c-3.68-1.92-7-7.13-7.12-12.28-.14-4.31,1.88-9.92,6.26-10.8,2.49-.5,4.87.7,6.74,2.59a14.4,14.4,0,0,1,3.2,5C88.74,121.64,87.65,127.64,85,130.84Z" id="LeftEar"/>
<path class="cls-5" d="M177.42,109.27c0,.39,0,.81-.06,1.22a77.8,77.8,0,0,1-4.47,21.44,82.17,82.17,0,0,1-5.2,11.67A67.28,67.28,0,0,1,151.19,164l0,0c-.55.42-1.07.81-1.59,1.22a46.06,46.06,0,0,1-5.36,3.42c-.93.52-1.89,1-2.85,1.41l-.22.09-.82.35a.75.75,0,0,0-.18.09c-.65.24-1.28.5-1.93.69a3.19,3.19,0,0,1-.37.13l0,0a31.38,31.38,0,0,1-9.66,1.59H127c-.17,0-.37,0-.54-.05s-.42,0-.63,0a1.62,1.62,0,0,1-.31,0,3.54,3.54,0,0,1-.48,0,29.44,29.44,0,0,1-4.5-.78l-.7-.2a2.21,2.21,0,0,0-.35-.08l-.76-.24-.5-.16-.18-.06-.71-.24s0,0,0,0c-.21-.09-.45-.15-.67-.24s-.35-.13-.52-.22a.93.93,0,0,1-.22-.09l-.44-.17-.45-.2c-.11,0-.24-.11-.37-.17s-.29-.13-.44-.2-.5-.24-.74-.34l-.63-.33c-.17-.09-.35-.2-.52-.28l-.2-.11a45.41,45.41,0,0,1-4.87-3.07c-.59-.44-1.2-.89-1.79-1.37a49.21,49.21,0,0,1-4.4-3.94,57,57,0,0,1-4.11-4.49v0A77.39,77.39,0,0,1,83.38,131a79.13,79.13,0,0,1-3.81-18.11c-.08-1-.15-2-.19-3.07A66,66,0,0,1,79.7,99c.16-1.46.37-2.89.63-4.33.16-.89.35-1.78.55-2.7,0,0,0-.11,0-.15.2-.81.42-1.63.63-2.44a72.1,72.1,0,0,1,4.62-12.49,66.32,66.32,0,0,1,14.89-20.53c1-.87,2-1.7,3-2.48,6.92-5.38,15.06-8.77,24.25-8.8,12.08-.06,22.46,5.75,30.52,14.26a64,64,0,0,1,5.05,6,72.14,72.14,0,0,1,8.57,15.37c.57,1.37,1.07,2.74,1.55,4.14A72.62,72.62,0,0,1,176,92c.2.87.37,1.74.53,2.63.24,1.39.45,2.81.61,4.22.13,1.16.21,2.29.28,3.44A67.5,67.5,0,0,1,177.42,109.27Z" id="Head"/>
<path class="cls-7" d="M177.4,102.3c-8.19-3-23.58-12-48.44-14.54-21.76-2.22-37.42,1.87-46.75,3.77,9.1-2.83,24.25-8.49,46.1-8.49,23.16,0,38.77,6.33,47.67,9,.2.87.37,1.74.53,2.63.24,1.39.45,2.81.61,4.22C177.25,100,177.33,101.15,177.4,102.3Z" id="HairsShadow"/>
<path class="cls-2" d="M184.3,91.9a2.18,2.18,0,0,1-.78.76c-1.44.85-3.94.39-7.54-.65-8.9-2.64-24.51-9-47.67-9-21.85,0-37,5.66-46.1,8.49l0,0c-.45.15-.87.26-1.28.39-4.53,1.35-7.34,1.77-8.53,0-4.9-7.42,21.05-48,56-48C164,43.92,189.18,84.56,184.3,91.9Z" data-name="Hairs" id="Hairs-2"/>
</g>
</svg>